<svg width="116" height="28" viewBox="0 0 116 28" fill="none" xmlns="http://www.w3.org/2000/svg">
<g clip-path="url(#clip0_194_1111)">
<path fill-rule="evenodd" clip-rule="evenodd" d="M11.2402 24.6352L14.4151 27.8117L17.5916 24.6352V13.065L14.4151 9.89014L11.2402 13.065V24.6352Z" fill="#00FF51"/>
<path fill-rule="evenodd" clip-rule="evenodd" d="M24.1839 15.0733H28.6764V10.5808L20.4957 2.40018H18.2495L16.0033 0.155518V2.40174V6.89418L24.1839 15.0749V15.0733ZM12.8284 0.155518L10.5822 2.40174H8.33594L0.155273 10.5824V15.0749H4.64772L12.8284 6.89418V0.155518Z" fill="white"/>
<path fill-rule="evenodd" clip-rule="evenodd" d="M69.754 6.26423L71.4028 7.91312H63.6748V6.26423H69.7555H69.754ZM71.4028 11.3493H63.6748V9.70045H69.7555L71.4044 11.3493H71.4028ZM53.2697 13.1367H55.0571V9.70045H60.1919V4.47534H58.4046V7.91156H49.9237V4.47534H48.1364V9.6989H53.2713V13.1351L53.2697 13.1367ZM58.4046 18.2685H49.9237V14.8322H48.1364V23.492H49.9237V20.0558H58.4046V23.492H60.1919V14.8322H58.4046V18.2685ZM77.4275 16.6196H83.5066L85.1555 18.2685H77.4275V16.6196ZM63.6748 16.6196H69.754L71.4028 18.2685H63.6748V16.6196ZM72.1557 23.492H73.9431V19.012V18.2685L70.5068 14.8322H63.6733H61.8859V23.492H63.6733V20.0558H72.1542V23.492H72.1557ZM38.5713 16.6196H44.6504L46.4377 14.8322H37.8168L34.3806 18.2685C34.3806 18.5671 34.3806 18.8627 34.3806 19.1629C34.3806 19.4631 34.3806 19.7571 34.3806 20.0573L37.8168 23.4936H46.4377L44.6504 21.7062H38.5713L36.0295 19.1645L38.5713 16.6227V16.6196ZM38.5713 6.26423H44.6504L46.4377 4.4769H37.8168L34.3806 7.91312C34.3806 8.21179 34.3806 8.50734 34.3806 8.80756C34.3806 9.10779 34.3806 9.40179 34.3806 9.70201L37.8168 13.1382H38.1155H46.4377L44.6504 11.3509H38.5713L36.0295 8.80912L38.5713 6.26734V6.26423ZM104.93 16.6196H113.411L115.198 14.8322H104.928H103.141V23.492H104.928H115.198L113.411 21.7047H104.93V20.0558H109.974L110.869 19.1613L109.974 18.2669H104.93V16.618V16.6196ZM87.0595 23.492L90.6326 27.0651H93.1728L89.5997 23.492H87.6957L84.2595 20.0558H87.6957V18.2685L84.2595 14.8322H77.4259H75.6386V23.492H77.4259V20.0558H81.7177L85.1539 23.492H87.0595ZM77.4259 6.26423H85.9068L87.6942 4.4769H77.4244H75.6371V13.1367H77.4244H87.6942L85.9068 11.3493H77.4259V9.70045H82.4706L83.3651 8.80601L82.4706 7.91156H77.4259V6.26267V6.26423ZM91.1786 7.91312V6.26423H97.2593L98.9082 7.91312H91.1802H91.1786ZM89.3913 13.1367H91.1786V9.70045H95.4704L98.9066 13.1367H101.447L98.0106 9.70045H101.447V7.91312L98.0106 4.4769H91.1771H89.3897V13.1367H89.3913ZM93.5819 16.6196H99.6611L101.448 14.8322H92.8275L89.3913 18.2685C89.3913 18.5671 89.3913 18.8627 89.3913 19.1629C89.3913 19.4631 89.3913 19.7571 89.3913 20.0573L92.8275 23.4936H95.3677H99.6595H101.447V18.27H94.2617L93.3673 19.1645L94.2617 20.0589H99.6595V21.7078H93.5788L91.0371 19.166L93.5788 16.6242L93.5819 16.6196ZM61.8875 13.1367H73.9446V12.0929V11.3493L72.2957 9.70045H73.9446V8.65667V7.91312L70.5084 4.4769H63.6748H61.8875V13.1367Z" fill="white"/>
</g>
<defs>
<clipPath id="clip0_194_1111">
<rect width="116" height="28" fill="white"/>
</clipPath>
</defs>
</svg>
